<svg xmlns="http://www.w3.org/2000/svg" viewBox="0 0 825 165" width="825" height="165" fill="none" stroke="black" stroke-width="1.5">
  <!-- Hull -->
  <path d="M50 130 Q412.5 160 775 130 Q700 165 125 165 Q50 145 50 130 Z" fill="none" />

  <!-- Lower Deck Lines -->
  <line x1="100" y1="140" x2="725" y2="140" stroke="black" />
  <line x1="150" y1="135" x2="675" y2="135" stroke="black" />
  
  <!-- Cannons -->
  <circle cx="175" cy="135" r="3" fill="black" />
  <circle cx="225" cy="135" r="3" fill="black" />
  <circle cx="275" cy="135" r="3" fill="black" />
  <circle cx="325" cy="135" r="3" fill="black" />
  <circle cx="375" cy="135" r="3" fill="black" />
  <circle cx="425" cy="135" r="3" fill="black" />
  <circle cx="475" cy="135" r="3" fill="black" />
  <circle cx="525" cy="135" r="3" fill="black" />
  <circle cx="575" cy="135" r="3" fill="black" />
  <circle cx="625" cy="135" r="3" fill="black" />
  
  <!-- Masts -->
  <line x1="200" y1="110" x2="200" y2="20" stroke="black" />
  <line x1="412.5" y1="110" x2="412.5" y2="10" stroke="black" />
  <line x1="625" y1="110" x2="625" y2="30" stroke="black" />

  <!-- Sails on Left Mast -->
  <path d="M200 30 L250 80 L200 80 Z" fill="none" />
  <path d="M200 30 L150 80 L200 80 Z" fill="none" />
  <path d="M200 80 L250 110 L200 110 Z" fill="none" />
  <path d="M200 80 L150 110 L200 110 Z" fill="none" />

  <!-- Sails on Center Mast -->
  <path d="M412.5 20 L482.5 80 L412.5 80 Z" fill="none" />
  <path d="M412.5 20 L342.5 80 L412.5 80 Z" fill="none" />
  <path d="M412.5 80 L482.5 110 L412.5 110 Z" fill="none" />
  <path d="M412.5 80 L342.5 110 L412.5 110 Z" fill="none" />

  <!-- Sails on Right Mast -->
  <path d="M625 40 L675 90 L625 90 Z" fill="none" />
  <path d="M625 40 L575 90 L625 90 Z" fill="none" />
  <path d="M625 90 L675 110 L625 110 Z" fill="none" />
  <path d="M625 90 L575 110 L625 110 Z" fill="none" />

  <!-- Rigging -->
  <line x1="200" y1="30" x2="412.5" y2="110" stroke="black" />
  <line x1="412.5" y1="20" x2="625" y2="110" stroke="black" />
  <line x1="200" y1="80" x2="412.5" y2="110" stroke="black" />
  <line x1="412.5" y1="80" x2="625" y2="110" stroke="black" />

  <!-- Crow's Nests -->
  <rect x="195" y="20" width="10" height="5" fill="black" />
  <rect x="407.5" y="10" width="10" height="5" fill="black" />
  <rect x="620" y="30" width="10" height="5" fill="black" />

  <!-- Flags -->
  <path d="M200 20 L220 40 L200 40 Z" fill="none" />
  <path d="M412.5 10 L430 25 L412.5 25 Z" fill="none" />
  <path d="M625 30 L645 50 L625 50 Z" fill="none" />

  <!-- Additional Decorative Rigging -->
  <line x1="412.5" y1="10" x2="482.5" y2="80" stroke="black" />
  <line x1="342.5" y1="80" x2="412.5" y2="20" stroke="black" />
</svg>
